<svg xmlns="http://www.w3.org/2000/svg" version="1.1" xmlns:xlink="http://www.w3.org/1999/xlink" width="1500" height="1500" viewBox="0 0 1500 1500"><rect width="1500" height="1500" x="0" y="0" id="background" stroke="transparent" fill="#000000"></rect><svg xml:space="preserve" width="1000" height="1000" data-version="2" data-id="lg_HUIZIrtaO3g2sbOyrX" viewBox="0 0 113 113" x="250" y="250"><rect width="100%" height="100%" fill="transparent"></rect><circle r="71.43" stroke="#bfbfbf" stroke-width="6" paint-order="stroke" transform="translate(56.5 56.5)scale(.749)"></circle><circle r="41.72" fill="#9c9c9c" transform="translate(36.1 34.16)scale(.3044)"></circle><path fill="#9c9c9c" d="M84.198 64.83a5.022 5.022 0 0 0-6.947-1.478c-6.16 3.998-10.79 5.687-13.764 5.02-2.32-.522-4.188-2.537-7.043-5.78-3.221-3.659-7.23-8.212-13.734-10.674a5.02 5.02 0 0 0-1.433-.313c-5.285-1.577-11.756-1.998-15.899 2.144-1.129 1.13-4.03 3.348-4.03 12.125v26.507H50.26l-.999-22.748c3.216 3.647 6.605 7.322 12.025 8.54a16.12 16.12 0 0 0 3.55.387c5.051 0 10.839-2.209 17.885-6.781a5.024 5.024 0 0 0 1.478-6.949m-9.864-17.99c-.508-.335-1.168-.53-1.98-.583a7.567 7.567 0 0 0-2.386.229 5.683 5.683 0 0 0-2.032.964c-.576.44-.88.983-.913 1.626-.034.575.203 1.04.71 1.395.51.355 1.142.609 1.904.762a9.026 9.026 0 0 0 2.464.128 7.455 7.455 0 0 0 2.463-.61 5.176 5.176 0 0 0 1.904-1.424c.508-.609.762-1.37.762-2.285V32.368l12.593-5.128-.05 14.726c-.575-.44-1.304-.703-2.183-.788a7.429 7.429 0 0 0-2.54.179c-.811.201-1.507.525-2.083.964-.574.44-.846.947-.812 1.523.033.679.306 1.227.812 1.65.508.425 1.15.729 1.93.915a8.536 8.536 0 0 0 2.487.204 6.509 6.509 0 0 0 2.439-.611A5.336 5.336 0 0 0 91.7 44.53c.508-.626.763-1.396.763-2.311v-20.77l-18.129 7.415z"></path></svg></svg>